# xmcd CD database file generated by freedbAccess_ocx
#
# Track frame offsets:
#       182
#       41812
#       64405
#       98577
#       138392
#       175697
#       247910
#       278002
#       307870
#
# Disc length: 4401 seconds
#
# Revision: 0
# Processed by: cddbd v1.5.1PL0 Copyright (c) Steve Scherf et al.
# Submitted via: CDnGo 2.00
#
DISCID=72112f09
DTITLE=Schmidt, Arno - Arno Schmidt Edition Vol. 6 [CD1) Tina - Goethe
DYEAR=1998
DGENRE=Speech
TTITLE0=Tina oder Über die Unsterblichkeit
TTITLE1=Da haben sie das Memento
TTITLE2=Anhalten. Tür auf. Raus
TTITLE3=Auf dieselbe Steinbank gesunken
TTITLE4=Allein durch die nächtliche Stadt irren
TTITLE5=Morgen. Schüchternste Dämmerung
TTITLE6=Tee bei Tina
TTITLE7=Goethe und einer seiner Bewunderer
TTITLE8=Also weiter die Listen
EXTD=
EXTT0=
EXTT1=
EXTT2=
EXTT3=
EXTT4=
EXTT5=
EXTT6=
EXTT7=
EXTT8=
PLAYORDER=
